# xmcd
#
# Track frame offsets:
#	150
#	13206
#	26001
#	41374
#	59374
#	76312
#	92381
#	103546
#	122517
#	137202
#	158267
#	178123
#	193534
#	210237
#	224504
#	243628
#	262090
#
# Disc length: 3715 seconds
#
# Revision: 1
# Processed by: cddbd v1.5.2PL0 Copyright (c) Steve Scherf et al.
# Submitted via: audiograbber 1.83.01
#
DISCID=e20e8111
DTITLE=Adam Brand - You're A Revhead
DYEAR=2011
DGENRE=Country
TTITLE0=Dirt Track Cowboys
TTITLE1=Number 34
TTITLE2=King Of The Road
TTITLE3=You're A Revhead
TTITLE4=Built For Speed
TTITLE5=When I Get My Wheels
TTITLE6=Big Old Car
TTITLE7=Dirt Racer
TTITLE8=Beating Around The Bush
TTITLE9=Just Drive
TTITLE10=Nothin's Gonna Slow Me Down
TTITLE11=That Was Us
TTITLE12=Drive Till The Wheels Fall Off
TTITLE13=Get On Down The Road
TTITLE14=Comin' From/Khe Sahn
TTITLE15=455 Rocket
TTITLE16=Born To Be Wild
EXTD=
EXTT0=
EXTT1=
EXTT2=
EXTT3=
EXTT4=
EXTT5=
EXTT6=
EXTT7=
EXTT8=
EXTT9=
EXTT10=
EXTT11=
EXTT12=
EXTT13=
EXTT14=
EXTT15=
EXTT16=
PLAYORDER=
